<svg xmlns="http://www.w3.org/2000/svg" xmlns:xlink="http://www.w3.org/1999/xlink"><symbol viewBox="0 0 64 64" id="facebook"><path d="M53.334 0H10.665C4.774 0 0 4.776 0 10.668v42.664C0 59.224 4.775 64 10.665 64h21.334V36h-8v-8h8v-6c0-5.523 4.477-10 10-10h10v8h-10a2 2 0 0 0-2 2v6h11l-2 8h-9v28h13.334c5.891 0 10.666-4.776 10.666-10.668V10.668C63.999 4.776 59.224 0 53.333 0z"/></symbol><symbol viewBox="0 0 64 64" id="twitter"><path d="M53.334 0H10.668C4.801 0 0 4.801 0 10.668v42.664C0 59.203 4.801 64 10.668 64h42.666C59.201 64 64 59.203 64 53.332V10.668C64 4.801 59.201 0 53.334 0zm-5.429 23.843c.016.352.024.706.024 1.062 0 10.844-8.254 23.349-23.349 23.349A23.234 23.234 0 0 1 12 44.567c.642.076 1.295.115 1.958.115 3.845 0 7.383-1.312 10.192-3.513a8.214 8.214 0 0 1-7.666-5.699 8.181 8.181 0 0 0 3.706-.14 8.212 8.212 0 0 1-6.583-8.047l.001-.103a8.16 8.16 0 0 0 3.717 1.026 8.203 8.203 0 0 1-3.651-6.831c0-1.504.405-2.914 1.111-4.126 4.048 4.965 10.094 8.232 16.915 8.574a8.234 8.234 0 0 1-.212-1.87 8.207 8.207 0 0 1 8.206-8.206 8.2 8.2 0 0 1 5.99 2.591 16.436 16.436 0 0 0 5.211-1.991 8.232 8.232 0 0 1-3.608 4.54A16.377 16.377 0 0 0 52 19.595a16.674 16.674 0 0 1-4.095 4.248z"/></symbol></svg>