<svg xmlns="http://www.w3.org/2000/svg" xmlns:xlink="http://www.w3.org/1999/xlink"><symbol viewBox="0 0 480 512" id="calendar"><path d="M160 192h64v64h-64v-64zm96 0h64v64h-64v-64zm96 0h64v64h-64v-64zM64 384h64v64H64v-64zm96 0h64v64h-64v-64zm96 0h64v64h-64v-64zm-96-96h64v64h-64v-64zm96 0h64v64h-64v-64zm96 0h64v64h-64v-64zm-288 0h64v64H64v-64zM416 0v32h-64V0H128v32H64V0H0v512h480V0h-64zm32 480H32V128h416v352z"/></symbol><symbol viewBox="0 0 511 422.9" id="command"><path d="M401.4 305.9c-.3-.1-.6-.1-.9-.2l-62.4-9.4c-10.1-6.5-11-22.7-11.1-40.3 19.7-20.3 32-48.9 32-80.5v-2.6c15.3-13.6 24-32.9 24-53.4v-48C383 32.1 350.9 0 311.5 0h-104c-14.9 0-27.5 10.4-30.7 24.4-27.5 3.3-48.8 26.8-48.8 55.1v40c0 20.6 8.7 39.9 24 53.4v2.6c0 31.6 12.3 60.2 32 80.5 0 17.5-1 33.7-11.1 40.3l-62.4 9.4c-.3 0-.6.1-.9.2-13.7 3.8-25.4 12.4-33.8 24.6-7.6 11.2-11.8 24.7-11.8 38v31c0 12.9 11.5 23.4 25.7 23.4h331.6c14.2 0 25.7-10.5 25.7-23.4v-31c0-13.3-4.2-26.8-11.8-38-8.4-12.3-20.1-20.8-33.8-24.6zM255.5 287c20.9 0 40.4-6.7 56.7-18.3.7 13.7 3.6 28.9 14.7 38-6 30.6-35.9 53.3-71.4 53.3s-65.4-22.6-71.4-53.3c11.1-9.2 14-24.3 14.7-38 16.3 11.6 35.8 18.3 56.7 18.3zM167 170.2V127.5c0-13.5 11-24.5 24.5-24.5h136c4.1 0 7.5-3.4 7.5-7.5s-3.4-7.5-7.5-7.5h-136c-21.8 0-39.5 17.7-39.5 39.5v22.6c-5.8-9-9-19.6-9-30.6v-40c0-22.3 18.2-40.5 40.5-40.5 4.1 0 7.5-3.4 7.5-7.5 0-9.1 7.4-16.5 16.5-16.5h104c31.2 0 56.5 25.3 56.5 56.5v48c0 11-3.2 21.6-9 30.6v-30.6c0-4.1-3.4-7.5-7.5-7.5s-7.5 3.4-7.5 7.5v56c0 53.2-39.7 96.5-88.5 96.5S167 228.7 167 175.5v-5.3zm265 229.3c0 4.6-4.9 8.4-10.7 8.4H89.7c-5.8 0-10.7-3.9-10.7-8.4v-31c0-19 11.8-41.5 34.2-48.1l56.6-8.5c8.4 36.4 43.9 63.1 85.7 63.1s77.3-26.6 85.7-63.1l56.6 8.5c22.5 6.5 34.2 29.1 34.2 48.1v31z"/><path d="M47.5 336H19.3c-2.4 0-4.3-1.5-4.3-2.8v-20.1c0-11.3 6.9-24.6 20.1-28.5l40.8-6.1c.2 0 .3-.1.5-.1h.2c.3-.1.6-.2.8-.3.1 0 .1-.1.2-.1l.6-.3h.1c.1 0 .1-.1.2-.1s.1-.1.2-.1c9.1-5.2 12.2-14.6 13.3-23.7 10 5.9 21.4 9.3 33.5 9.3 10.2 0 20-2.3 29.2-6.9 3.7-1.8 5.2-6.3 3.4-10.1-1.8-3.7-6.3-5.2-10.1-3.4-7.1 3.5-14.7 5.3-22.5 5.3-30 0-54.5-26.8-54.5-59.8v-32c0-7.3 5.9-13.2 13.2-13.2h19.3c4.1 0 7.5-3.4 7.5-7.5s-3.4-7.5-7.5-7.5H84.2C68.7 128 56 140.7 56 156.2v3.9c-.7-2.6-1-5.4-1-8.2V126c0-13 10.6-23.6 23.6-23.6 4.1 0 7.5-3.4 7.5-7.5 0-4.4 3.6-8 8-8h9.4c4.1 0 7.5-3.4 7.5-7.5s-3.4-7.5-7.5-7.5h-9.4c-10.3 0-19 6.8-22 16.1C53.9 91.1 40 107 40 126.1V152c0 13.9 5.8 26.9 16 36.2v.1c0 21.3 8.3 40.5 21.6 54.1-.1 9.5-.8 18.1-5.5 21.6l-39.7 6c-.3 0-.6.1-.9.2C10.8 275.8 0 296.1 0 313.1v20.1C0 343 8.6 351 19.3 351h28.2c4.1 0 7.5-3.4 7.5-7.5s-3.4-7.5-7.5-7.5zM479.6 270.1c-.3-.1-.6-.1-.9-.2l-39.7-6c-4.7-3.5-5.4-12.1-5.5-21.6 13.3-13.6 21.6-32.8 21.6-54.1v-.1c10.2-9.3 16-22.3 16-36.2v-40.5c0-21.8-17.7-39.5-39.5-39.5h-24c-4.1 0-7.5 3.4-7.5 7.5s3.4 7.5 7.5 7.5h24C445 87 456 98 456 111.5V152c0 2.8-.3 5.5-1 8.2v-3.9c0-15.6-12.7-28.2-28.2-28.2h-19.3c-4.1 0-7.5 3.4-7.5 7.5s3.4 7.5 7.5 7.5h19.3c7.3 0 13.2 5.9 13.2 13.2v32c0 33-24.5 59.8-54.6 59.8-7.9 0-15.5-1.8-22.5-5.3-3.7-1.8-8.2-.3-10.1 3.4-1.8 3.7-.3 8.2 3.4 10.1 9.2 4.6 19 6.9 29.2 6.9 12.2 0 23.6-3.4 33.5-9.3 1.1 9.2 4.2 18.6 13.3 23.7.1 0 .1.1.2.1s.1.1.2.1h.1l.6.3c.1 0 .1.1.2.1.3.1.5.2.8.3h.2c.2 0 .3.1.5.1l40.8 6.1c13.2 3.9 20.1 17.3 20.1 28.5v20.1c0 1.3-1.8 2.8-4.3 2.8h-28.2c-4.1 0-7.5 3.4-7.5 7.5s3.4 7.5 7.5 7.5h28.2c10.6 0 19.3-8 19.3-17.8v-20.1c.1-17.1-10.7-37.4-31.3-43.1z"/></symbol><symbol viewBox="0 0 48.625 48.625" id="earth"><path d="M35.432 10.815l.047.361-.541.112-.072.769h.648l.862-.083.445-.529-.473-.184-.259-.298-.389-.63-.186-.891-.731.149-.205.314v.354l.352.241z"/><path d="M34.809 11.111l.039-.482-.429-.185-.6.139-.445.714v.463h.519zM22.459 13.158l-.132.34h-.639v.33h.152l.022.162.392-.033.245-.152.064-.307.317-.027.125-.258-.291-.06-.255.005zM20.812 13.757l-.025.323.463-.039.048-.324-.278-.219z"/><path d="M48.619 24.061a24.552 24.552 0 0 0-.11-2.112 24.165 24.165 0 0 0-1.609-6.62c-.062-.155-.119-.312-.185-.465a24.341 24.341 0 0 0-4.939-7.441 24.19 24.19 0 0 0-1.11-1.086A24.22 24.22 0 0 0 24.312 0c-6.345 0-12.126 2.445-16.46 6.44a24.6 24.6 0 0 0-2.78 3.035A24.18 24.18 0 0 0 0 24.312c0 13.407 10.907 24.313 24.313 24.313 9.43 0 17.617-5.4 21.647-13.268a24.081 24.081 0 0 0 2.285-6.795c.245-1.381.379-2.801.379-4.25.001-.084-.004-.167-.005-.251zm-4.576-9.717l.141-.158c.185.359.358.724.523 1.094l-.23-.009-.434.06v-.987zm-3.513-4.242l.004-1.086c.382.405.75.822 1.102 1.254l-.438.652-1.531-.014-.096-.319.959-.487zM11.202 7.403v-.041h.487l.042-.167h.797v.348l-.229.306h-1.098l.001-.446zm.778 1.085s.487-.083.529-.083 0 .486 0 .486l-1.098.069-.209-.25.778-.222zm33.612 9.651h-1.779l-1.084-.807-1.141.111v.696h-.361l-.39-.278-1.976-.501v-1.28l-2.504.195-.776.417h-.994l-.487-.049-1.207.67v1.261l-2.467 1.78.205.76h.5l-.131.724-.352.129-.019 1.892 2.132 2.428h.928l.056-.148h1.668l.481-.445h.946l.519.52 1.41.146-.187 1.875 1.565 2.763-.824 1.575.056.742.649.647v1.784l.852 1.146v1.482h.736c-4.096 5.029-10.33 8.25-17.305 8.25C12.009 46.625 2 36.615 2 24.312c0-3.097.636-6.049 1.781-8.732v-.696l.798-.969c.277-.523.574-1.033.891-1.53l.036.405-.926 1.125a22.14 22.14 0 0 0-.798 1.665v1.27l.927.446v1.765l.889 1.517.723.111.093-.52-.853-1.316-.167-1.279h.5l.211 1.316 1.233 1.799-.318.581.784 1.199 1.947.482v-.315l.779.111-.074.556.612.112.945.258 1.335 1.521 1.705.129.167 1.391-1.167.816-.055 1.242-.167.76 1.688 2.113.129.724s.612.166.687.166c.074 0 1.372.983 1.372.983v3.819l.463.13-.315 1.762.779 1.039-.144 1.746 1.029 1.809 1.321 1.154 1.328.024.13-.427-.976-.822.056-.408.175-.5.037-.51-.66-.02-.333-.418.548-.527.074-.398-.612-.175.036-.37.872-.132 1.326-.637.445-.816 1.391-1.78-.316-1.392.427-.741 1.279.039.861-.682.278-2.686.955-1.213.167-.779-.871-.279-.575-.943-1.965-.02-1.558-.594-.074-1.111-.52-.909-1.409-.021-.814-1.278-.723-.353-.037.39-1.316.078-.482-.671-1.373-.279-1.131 1.307-1.78-.302-.129-2.006-1.299-.222.521-.984-.149-.565-1.707 1.141-1.074-.131-.383-.839.234-.865.592-1.091 1.363-.69 2.632-.001-.007.803.946.44-.075-1.372.682-.686 1.376-.904.094-.636 1.372-1.428 1.459-.808-.129-.106.988-.93.362.096.166.208.375-.416.092-.041-.411-.058-.417-.139v-.4l.221-.181h.487l.223.098.193.39.236-.036v-.034l.068.023.684-.105.097-.334.39.098v.362l-.362.249h.001l.053.397 1.239.382.003.015.285-.024.019-.537-.982-.447-.056-.258.815-.278.036-.78-.852-.519-.056-1.315-1.168.574h-.426l.112-1.001-1.59-.375-.658.497v1.516l-1.183.375-.474.988-.514.083v-1.264l-1.112-.154-.556-.362-.224-.819 1.989-1.164.973-.296.098.654.542-.028.042-.329.567-.081.01-.115-.244-.101-.056-.348.697-.059.421-.438.023-.032.005.002.128-.132 1.465-.185.648.55-1.699.905 2.162.51.28-.723h.945l.334-.63-.668-.167v-.797l-2.095-.928-1.446.167-.816.427.056 1.038-.853-.13-.131-.574.817-.742-1.483-.074-.426.129-.185.5.556.094-.111.556-.945.056-.148.37-1.371.038s-.038-.778-.093-.778l1.075-.019.817-.798-.446-.223-.593.576-.984-.056-.593-.816h-1.261l-1.316.983h1.206l.11.353-.313.291 1.335.037.204.482-1.503-.056-.073-.371-.945-.204-.501-.278-1.125.009A22.188 22.188 0 0 1 24.312 2c5.642 0 10.797 2.109 14.73 5.574l-.265.474-1.029.403-.434.471.1.549.531.074.32.8.916-.369.151 1.07h-.276l-.752-.111-.834.14-.807 1.14-1.154.181-.167.988.487.115-.141.635-1.146-.23-1.051.23-.223.585.182 1.228.617.289 1.035-.006.699-.063.213-.556 1.092-1.419.719.147.708-.64.132.5 1.742 1.175-.213.286-.785-.042.302.428.483.106.566-.236-.012-.682.251-.126-.202-.214-1.162-.648-.306-.861h.966l.309.306.832.717.035.867.862.918.321-1.258.597-.326.112 1.029.583.64 1.163-.02c.225.579.427 1.168.604 1.769l-.121.112zm-32.331-7.093l.584-.278.528.126-.182.709-.57.181-.36-.738zm3.099 1.669v.459h-1.334l-.5-.139.125-.32.641-.265h.876v.265h.192zm.614.64v.445l-.334.215-.416.077v-.737h.75zm-.376-.181v-.529l.459.418-.459.111zm.209 1.07v.433l-.319.32h-.709l.111-.486.335-.029.069-.167.513-.071zm-1.766-.889h.737l-.945 1.321-.39-.209.084-.556.514-.556zm3.018.737v.432h-.709l-.194-.28v-.402h.056l.847.25zm-.655-.594l.202-.212.341.212-.273.225-.27-.225zm28.55 5.767l.07-.082c.029.126.06.252.088.38l-.158-.298z"/><path d="M3.782 14.884v.696c.243-.568.511-1.122.798-1.665l-.798.969z"/></symbol><symbol viewBox="0 0 88.2 73" id="trust"><path d="M21.3 7.9c0 4.3-3.5 7.9-7.9 7.9s-7.9-3.5-7.9-7.9S9.1 0 13.4 0s7.9 3.5 7.9 7.9zm-19.5 32c-.1.8 2.2 13.2 2 14S-.6 68.9.1 70.7c.7 1.8 8 2.7 8.8 2 .4-.3 4.5-17.9 5.1-17.4.6.5-1.7 15.6-.5 17 1.1 1.3 8.8.7 9.3.1 1-1.4.1-19.1.1-19.9s-7-12.2-7-12.4.5-2.8.6-3 8.4 4.4 9.4 4.2c1-.3 2.6-4.7 2.6-5.1s-2.4-1.3-2.8-1.7 8.6.9 9.5-.2c.6-.7-.7-5.2-1.3-6.2-.6-.9-10.6-1-11.5-1.6-1-.7-4.6-7.3-5.7-8.6-.9-1.1-8.7-3-11.1.3-1.5 1.7-3.3 18-3.8 21.7zM35.3 2.5c-4.3 0-7.9 3.5-7.9 7.9s3.5 7.9 7.9 7.9 7.9-3.5 7.9-7.9-3.5-7.9-7.9-7.9zm19 11.6c-.5 1.1 1 2.1 1.6 1.7 7.5-6.3 20.8-5.5 24.8-5.1.8.1.1-.3.1-.3.6.3-14.4-3.8-26.5 3.7zm7.1 3.2c-.5 1.1 1 2.1 1.6 1.7 7.5-6.3 20.8-5.5 24.8-5.1.8.1.1-.3.1-.3.6.3-14.4-3.8-26.5 3.7zm3 31.6c-.1-.8-9.5-10.8-10.7-12.7 0 0-3.8-1.3-4.1-1.6-.2-.2-3.9-4.3-4.1-4.5-.1-.1.2-.4.4-.2s3.8 4.1 3.9 4.3c.2.1 4.1 1.7 4.1 1.7 1.6 0 9.3 2.2 9.8 2.2.6 0 2.1-5.3 1.4-6-.7-.8-10.1-4.2-11.4-4.7-1-.4-6.7-7-8.4-8.7-2.5-2.4-12-.1-11.2 6.3.5 3.5 7.6 20.3 7.8 20.8s9 10.6 9.3 11c.4.5 5.4 16.3 6.4 16.4 1.8.1 6.3-1.3 7.8-2.4l-7.7-18.4c-.1-.4-2.5-4-2.2-4.3.2-.2 2.6 3.3 2.9 3.8.3.6 5.9 14.4 7.6 18.8 1.1 0 5.8-3.5 6-4 .5-1.3-7.5-16.9-7.6-17.8z"/></symbol><symbol viewBox="0 0 367 463" id="woman"><path d="M325 335.1l-36.1-9c4.3-1.7 9-3.7 13.7-5.8 28.4-12.6 40.5-22.4 40.5-32.9 0-106.1-14-180.1-42.7-226.2C274.6 20 236.4 0 183.5 0S92.4 20 66.7 61.3C38 107.4 24 181.4 24 287.5c0 10.4 12.1 20.3 40.5 32.9 4.7 2.1 9.3 4 13.7 5.8l-36.1 9C17.3 341.3 0 363.5 0 389v50.5c0 13 10.5 23.5 23.5 23.5h320c13 0 23.5-10.5 23.5-23.5V389c0-25.5-17.3-47.7-42-53.9zm-205.9-3.8c14-3.5 23.9-16.1 23.9-30.6v-7c12.6 6 26.2 9.3 40.5 9.3 14 0 27.7-3.2 40.5-9.2v7c0 14.5 9.8 27 23.9 30.6l9.4 2.4c-18.4 22.6-45.9 48-73.8 57.9-27.8-9.9-55.4-35.3-73.8-57.9l9.4-2.5zm64.4-43.3C130.3 288 87 233.9 87 167.5v-4.8c41.7-38 123-43.2 154.9-43.7 6.1 20.4 17.2 47.2 36.4 70.3-4 27.1-15.4 51.8-32.3 69.8-17.4 18.7-39.6 28.9-62.5 28.9zM39 287.2c0-103 13.2-174.4 40.4-218 23-37 56.1-54.2 104.1-54.2s81 17.2 104.1 54.2c27.2 43.6 40.4 114.9 40.4 218-.4 1-4.4 7.6-33.5 20.3-13.3 5.8-26.4 10.5-31.3 12.2l-11.7-2.9c-7.4-1.8-12.5-8.4-12.5-16V285c6.4-4.4 12.4-9.7 17.9-15.6 19.7-21.1 32.7-50 36.7-81.5.3-2.1-.4-4.2-1.8-5.9-20.6-23.7-31.5-52.5-37.1-72.6-.9-3.3-3.9-5.5-7.2-5.5-16.8 0-50.2 1.1-84.9 8.6-39 8.4-68.7 22.4-88.3 41.5-1.4 1.4-2.3 3.3-2.3 5.4v8c0 50.2 22.6 94.1 56 117.5v15.8c0 7.6-5.1 14.2-12.5 16l-11.7 2.9c-4.9-1.7-17.9-6.3-31.2-12.1-29.2-12.7-33.2-19.3-33.6-20.3zm313 152.3c0 4.7-3.8 8.5-8.5 8.5H303v-36.9c0-4.1-3.4-7.5-7.5-7.5s-7.5 3.4-7.5 7.5V448H79v-36.9c0-4.1-3.4-7.5-7.5-7.5S64 407 64 411.1V448H23.5c-4.7 0-8.5-3.8-8.5-8.5V389c0-18.6 12.6-34.8 30.7-39.3l48-12c30.2 39.6 64.6 61.5 87.5 69 .8.2 1.5.4 2.3.4.8 0 1.6-.1 2.3-.4 22.8-7.4 57.3-29.4 87.5-69l48 12c18.1 4.5 30.7 20.7 30.7 39.3v50.5z"/></symbol><symbol viewBox="0 0 576 576" id="world"><path d="M288 0C128.9 0 0 128.9 0 288s128.9 288 288 288 288-128.9 288-288S447.1 0 288 0zm64 64c0 32-16 64-48 64s-48 32-48 64v96s32 0 32-96c0-17.7 14.3-32 32-32s32 14.3 32 32v96c-17.7 0-32 14.3-32 32s14.3 32 32 32 32-14.3 32-32h32v-64l32 32-32 32c0 96 0 96-64 128 0-32-32-32-96-32v-64l-64-64v-64c-32 0-32 32-32 32l-94.4-94.4c3.5-6.1 7.2-12.2 11.2-18l16.7-21.7C140.5 66.9 210.1 32 288 32c22.1 0 43.5 3.1 64 8.4V64z"/></symbol></svg>