<?xml version="1.0" encoding="utf-8"?>
<!-- Generator: Adobe Illustrator 20.0.0, SVG Export Plug-In . SVG Version: 6.00 Build 0)  -->
<svg version="1.1" id="Layer_1" xmlns="http://www.w3.org/2000/svg" xmlns:xlink="http://www.w3.org/1999/xlink" x="0px" y="0px"
	 viewBox="0 0 511 422.9" style="enable-background:new 0 0 511 422.9;" xml:space="preserve">
<g>
	<path d="M401.4,305.9c-0.3-0.1-0.6-0.1-0.9-0.2l-62.4-9.4c-10.1-6.5-11-22.7-11.1-40.3c19.7-20.3,32-48.9,32-80.5v-2.6
		c15.3-13.6,24-32.9,24-53.4v-48C383,32.1,350.9,0,311.5,0h-104c-14.9,0-27.5,10.4-30.7,24.4C149.3,27.7,128,51.2,128,79.5v40
		c0,20.6,8.7,39.9,24,53.4v2.6c0,31.6,12.3,60.2,32,80.5c0,17.5-1,33.7-11.1,40.3l-62.4,9.4c-0.3,0-0.6,0.1-0.9,0.2
		c-13.7,3.8-25.4,12.4-33.8,24.6c-7.6,11.2-11.8,24.7-11.8,38v31c0,12.9,11.5,23.4,25.7,23.4h331.6c14.2,0,25.7-10.5,25.7-23.4v-31
		c0-13.3-4.2-26.8-11.8-38C426.8,318.2,415.1,309.7,401.4,305.9L401.4,305.9z M255.5,287c20.9,0,40.4-6.7,56.7-18.3
		c0.7,13.7,3.6,28.9,14.7,38c-6,30.6-35.9,53.3-71.4,53.3s-65.4-22.6-71.4-53.3c11.1-9.2,14-24.3,14.7-38
		C215.1,280.3,234.6,287,255.5,287L255.5,287z M167,170.2c0-0.5,0-0.9,0-1.4v-41.3c0-13.5,11-24.5,24.5-24.5h136
		c4.1,0,7.5-3.4,7.5-7.5c0-4.1-3.4-7.5-7.5-7.5h-136c-21.8,0-39.5,17.7-39.5,39.5v22.6c-5.8-9-9-19.6-9-30.6v-40
		c0-22.3,18.2-40.5,40.5-40.5c4.1,0,7.5-3.4,7.5-7.5c0-9.1,7.4-16.5,16.5-16.5h104c31.2,0,56.5,25.3,56.5,56.5v48
		c0,11-3.2,21.6-9,30.6v-30.6c0-4.1-3.4-7.5-7.5-7.5s-7.5,3.4-7.5,7.5v56c0,53.2-39.7,96.5-88.5,96.5S167,228.7,167,175.5V170.2
		L167,170.2z M432,399.5c0,4.6-4.9,8.4-10.7,8.4H89.7c-5.8,0-10.7-3.9-10.7-8.4v-31c0-19,11.8-41.5,34.2-48.1l56.6-8.5
		c8.4,36.4,43.9,63.1,85.7,63.1s77.3-26.6,85.7-63.1l56.6,8.5c22.5,6.5,34.2,29.1,34.2,48.1V399.5L432,399.5z"/>
	<path d="M47.5,336H19.3c-2.4,0-4.3-1.5-4.3-2.8v-20.1c0-11.3,6.9-24.6,20.1-28.5l40.8-6.1c0.2,0,0.3-0.1,0.5-0.1c0.1,0,0.2,0,0.2,0
		c0.3-0.1,0.6-0.2,0.8-0.3c0.1,0,0.1-0.1,0.2-0.1c0.2-0.1,0.4-0.2,0.6-0.3c0,0,0.1,0,0.1,0c0.1,0,0.1-0.1,0.2-0.1
		c0.1,0,0.1-0.1,0.2-0.1c9.1-5.2,12.2-14.6,13.3-23.7c10,5.9,21.4,9.3,33.5,9.3c10.2,0,20-2.3,29.2-6.9c3.7-1.8,5.2-6.3,3.4-10.1
		c-1.8-3.7-6.3-5.2-10.1-3.4c-7.1,3.5-14.7,5.3-22.5,5.3C95.5,248,71,221.2,71,188.2v-32c0-7.3,5.9-13.2,13.2-13.2h19.3
		c4.1,0,7.5-3.4,7.5-7.5c0-4.1-3.4-7.5-7.5-7.5H84.2C68.7,128,56,140.7,56,156.2v3.9c-0.7-2.6-1-5.4-1-8.2v-25.9
		c0-13,10.6-23.6,23.6-23.6c4.1,0,7.5-3.4,7.5-7.5c0-4.4,3.6-8,8-8h9.4c4.1,0,7.5-3.4,7.5-7.5c0-4.1-3.4-7.5-7.5-7.5h-9.4
		c-10.3,0-19,6.8-22,16.1C53.9,91.1,40,107,40,126.1V152c0,13.9,5.8,26.9,16,36.2v0.1c0,21.3,8.3,40.5,21.6,54.1
		c-0.1,9.5-0.8,18.1-5.5,21.6l-39.7,6c-0.3,0-0.6,0.1-0.9,0.2C10.8,275.8,0,296.1,0,313.1v20.1C0,343,8.6,351,19.3,351h28.2
		c4.1,0,7.5-3.4,7.5-7.5C55,339.4,51.6,336,47.5,336L47.5,336z"/>
	<path d="M479.6,270.1c-0.3-0.1-0.6-0.1-0.9-0.2l-39.7-6c-4.7-3.5-5.4-12.1-5.5-21.6c13.3-13.6,21.6-32.8,21.6-54.1v-0.1
		c10.2-9.3,16-22.3,16-36.2v-40.5c0-21.8-17.7-39.5-39.5-39.5h-24c-4.1,0-7.5,3.4-7.5,7.5c0,4.1,3.4,7.5,7.5,7.5h24
		C445,87,456,98,456,111.5V152c0,2.8-0.3,5.5-1,8.2v-3.9c0-15.6-12.7-28.2-28.2-28.2h-19.3c-4.1,0-7.5,3.4-7.5,7.5
		c0,4.1,3.4,7.5,7.5,7.5h19.3c7.3,0,13.2,5.9,13.2,13.2v32c0,33-24.5,59.8-54.6,59.8c-7.9,0-15.5-1.8-22.5-5.3
		c-3.7-1.8-8.2-0.3-10.1,3.4c-1.8,3.7-0.3,8.2,3.4,10.1c9.2,4.6,19,6.9,29.2,6.9c12.2,0,23.6-3.4,33.5-9.3
		c1.1,9.2,4.2,18.6,13.3,23.7c0.1,0,0.1,0.1,0.2,0.1c0.1,0,0.1,0.1,0.2,0.1c0,0,0.1,0,0.1,0c0.2,0.1,0.4,0.2,0.6,0.3
		c0.1,0,0.1,0.1,0.2,0.1c0.3,0.1,0.5,0.2,0.8,0.3c0.1,0,0.2,0,0.2,0c0.2,0,0.3,0.1,0.5,0.1l40.8,6.1c13.2,3.9,20.1,17.3,20.1,28.5
		v20.1c0,1.3-1.8,2.8-4.3,2.8h-28.2c-4.1,0-7.5,3.4-7.5,7.5c0,4.1,3.4,7.5,7.5,7.5h28.2c10.6,0,19.3-8,19.3-17.8v-20.1
		C511,296.1,500.2,275.8,479.6,270.1L479.6,270.1z"/>
</g>
</svg>
