<?xml version="1.0" encoding="utf-8"?>
<!-- Generator: Adobe Illustrator 20.0.0, SVG Export Plug-In . SVG Version: 6.00 Build 0)  -->
<svg version="1.1" id="Layer_1" xmlns="http://www.w3.org/2000/svg" xmlns:xlink="http://www.w3.org/1999/xlink" x="0px" y="0px"
	 viewBox="0 0 367 463" style="enable-background:new 0 0 367 463;" xml:space="preserve">
<g>
	<path d="M325,335.1l-36.1-9c4.3-1.7,9-3.7,13.7-5.8c28.4-12.6,40.5-22.4,40.5-32.9c0-106.1-14-180.1-42.7-226.2
		C274.6,20,236.4,0,183.5,0S92.4,20,66.7,61.3C38,107.4,24,181.4,24,287.5c0,10.4,12.1,20.3,40.5,32.9c4.7,2.1,9.3,4,13.7,5.8
		l-36.1,9C17.3,341.3,0,363.5,0,389v50.5c0,13,10.5,23.5,23.5,23.5h320c13,0,23.5-10.5,23.5-23.5V389
		C367,363.5,349.7,341.3,325,335.1z M119.1,331.3c14-3.5,23.9-16.1,23.9-30.6v-7c12.6,6,26.2,9.3,40.5,9.3c14,0,27.7-3.2,40.5-9.2v7
		c0,14.5,9.8,27,23.9,30.6l9.4,2.4c-18.4,22.6-45.9,48-73.8,57.9c-27.8-9.9-55.4-35.3-73.8-57.9L119.1,331.3L119.1,331.3z
		 M183.5,288C130.3,288,87,233.9,87,167.5v-4.8c41.7-38,123-43.2,154.9-43.7c6.1,20.4,17.2,47.2,36.4,70.3
		c-4,27.1-15.4,51.8-32.3,69.8C228.6,277.8,206.4,288,183.5,288L183.5,288z M39,287.2c0-103,13.2-174.4,40.4-218
		c23-37,56.1-54.2,104.1-54.2s81,17.2,104.1,54.2c27.2,43.6,40.4,114.9,40.4,218c-0.4,1-4.4,7.6-33.5,20.3
		c-13.3,5.8-26.4,10.5-31.3,12.2l-11.7-2.9c-7.4-1.8-12.5-8.4-12.5-16V285c6.4-4.4,12.4-9.7,17.9-15.6c19.7-21.1,32.7-50,36.7-81.5
		c0.3-2.1-0.4-4.2-1.8-5.9c-20.6-23.7-31.5-52.5-37.1-72.6c-0.9-3.3-3.9-5.5-7.2-5.5c-16.8,0-50.2,1.1-84.9,8.6
		c-39,8.4-68.7,22.4-88.3,41.5c-1.4,1.4-2.3,3.3-2.3,5.4v8c0,50.2,22.6,94.1,56,117.5v15.8c0,7.6-5.1,14.2-12.5,16l-11.7,2.9
		c-4.9-1.7-17.9-6.3-31.2-12.1C43.4,294.8,39.4,288.2,39,287.2L39,287.2z M352,439.5c0,4.7-3.8,8.5-8.5,8.5H303v-36.9
		c0-4.1-3.4-7.5-7.5-7.5s-7.5,3.4-7.5,7.5V448H79v-36.9c0-4.1-3.4-7.5-7.5-7.5s-7.5,3.4-7.5,7.5V448H23.5c-4.7,0-8.5-3.8-8.5-8.5
		V389c0-18.6,12.6-34.8,30.7-39.3l48-12c30.2,39.6,64.6,61.5,87.5,69c0.8,0.2,1.5,0.4,2.3,0.4c0.8,0,1.6-0.1,2.3-0.4
		c22.8-7.4,57.3-29.4,87.5-69l48,12c18.1,4.5,30.7,20.7,30.7,39.3V439.5z"/>
</g>
</svg>
