<?xml version="1.0" encoding="utf-8"?>
<!-- Generator: Adobe Illustrator 20.0.0, SVG Export Plug-In . SVG Version: 6.00 Build 0)  -->
<svg version="1.1" id="Layer_1" xmlns="http://www.w3.org/2000/svg" xmlns:xlink="http://www.w3.org/1999/xlink" x="0px" y="0px"
	 viewBox="0 0 576 576" style="enable-background:new 0 0 576 576;" xml:space="preserve">
<g id="icomoon-ignore">
</g>
<path d="M288,0C128.9,0,0,128.9,0,288s128.9,288,288,288s288-128.9,288-288S447.1,0,288,0z M352,64c0,32-16,64-48,64s-48,32-48,64
	s0,96,0,96s32,0,32-96c0-17.7,14.3-32,32-32s32,14.3,32,32v96c-17.7,0-32,14.3-32,32s14.3,32,32,32c17.7,0,32-14.3,32-32h32v-64
	l32,32l-32,32c0,96,0,96-64,128c0-32-32-32-96-32v-64l-64-64v-64c-32,0-32,32-32,32l-94.4-94.4c3.5-6.1,7.2-12.2,11.2-18l16.7-21.7
	C140.5,66.9,210.1,32,288,32c22.1,0,43.5,3.1,64,8.4C352,40.4,352,64,352,64z"/>
</svg>
